<svg id="visual" viewBox="0 0 900 600" width="900" height="600" xmlns="http://www.w3.org/2000/svg" xmlns:xlink="http://www.w3.org/1999/xlink" version="1.1"><path d="M0 44L6 45C12 46 24 48 36 45.3C48 42.7 60 35.3 72 28.8C84 22.3 96 16.7 108 19.8C120 23 132 35 144 35.2C156 35.3 168 23.7 180 20.2C192 16.7 204 21.3 216 24.5C228 27.7 240 29.3 252 32.2C264 35 276 39 288 36.5C300 34 312 25 324 24.5C336 24 348 32 360 34.3C372 36.7 384 33.3 396 34C408 34.7 420 39.3 432 39.8C444 40.3 456 36.7 468 32.3C480 28 492 23 504 23.3C516 23.7 528 29.3 540 31.3C552 33.3 564 31.7 576 34.2C588 36.7 600 43.3 612 40.3C624 37.3 636 24.7 648 20C660 15.3 672 18.7 684 20.8C696 23 708 24 720 25C732 26 744 27 756 25.8C768 24.7 780 21.3 792 23.7C804 26 816 34 828 33.7C840 33.3 852 24.7 864 20.7C876 16.7 888 17.3 894 17.7L900 18L900 0L894 0C888 0 876 0 864 0C852 0 840 0 828 0C816 0 804 0 792 0C780 0 768 0 756 0C744 0 732 0 720 0C708 0 696 0 684 0C672 0 660 0 648 0C636 0 624 0 612 0C600 0 588 0 576 0C564 0 552 0 540 0C528 0 516 0 504 0C492 0 480 0 468 0C456 0 444 0 432 0C420 0 408 0 396 0C384 0 372 0 360 0C348 0 336 0 324 0C312 0 300 0 288 0C276 0 264 0 252 0C240 0 228 0 216 0C204 0 192 0 180 0C168 0 156 0 144 0C132 0 120 0 108 0C96 0 84 0 72 0C60 0 48 0 36 0C24 0 12 0 6 0L0 0Z" fill="#F96B72" stroke-linecap="round" stroke-linejoin="miter"></path></svg>