<?xml version="1.0" encoding="UTF-8"?>
<!-- Generated by Pixelmator Pro 3.3.8 -->
<svg width="900" height="600" viewBox="0 0 900 600" xmlns="http://www.w3.org/2000/svg">
    <path id="path1" fill="#faacc4" stroke="none" d="M 0 567 L 6 565.200012 C 12 563.299988 24 559.700012 36 556.700012 C 48 553.700012 60 551.299988 72 554.700012 C 84 558 96 567 108 569.5 C 120 572 132 568 144 564.799988 C 156 561.700012 168 559.299988 180 561.299988 C 192 563.299988 204 569.700012 216 571.5 C 228 573.299988 240 570.700012 252 572 C 264 573.299988 276 578.700012 288 577.700012 C 300 576.700012 312 569.299988 324 568.200012 C 336 567 348 572 360 570.799988 C 372 569.700012 384 562.299988 396 564.5 C 408 566.700012 420 578.299988 432 583.5 C 444 588.700012 456 587.299988 468 587.200012 C 480 587 492 588 504 588 C 516 588 528 587 540 581.200012 C 552 575.299988 564 564.700012 576 563.5 C 588 562.299988 600 570.700012 612 572.799988 C 624 575 636 571 648 571 C 660 571 672 575 684 574.200012 C 696 573.299988 708 567.700012 720 567 C 732 566.299988 744 570.700012 756 570 C 768 569.299988 780 563.700012 792 561.5 C 804 559.299988 816 560.700012 828 564.700012 C 840 568.700012 852 575.299988 864 573.700012 C 876 572 888 562 894 557 L 900 552 L 900 601 L 894 601 C 888 601 876 601 864 601 C 852 601 840 601 828 601 C 816 601 804 601 792 601 C 780 601 768 601 756 601 C 744 601 732 601 720 601 C 708 601 696 601 684 601 C 672 601 660 601 648 601 C 636 601 624 601 612 601 C 600 601 588 601 576 601 C 564 601 552 601 540 601 C 528 601 516 601 504 601 C 492 601 480 601 468 601 C 456 601 444 601 432 601 C 420 601 408 601 396 601 C 384 601 372 601 360 601 C 348 601 336 601 324 601 C 312 601 300 601 288 601 C 276 601 264 601 252 601 C 240 601 228 601 216 601 C 204 601 192 601 180 601 C 168 601 156 601 144 601 C 132 601 120 601 108 601 C 96 601 84 601 72 601 C 60 601 48 601 36 601 C 24 601 12 601 6 601 L 0 601 Z"/>
</svg>
